<?xml version="1.0" encoding="UTF-8" standalone="no" ?>
<!DOCTYPE svg PUBLIC "-//W3C//DTD SVG 1.1//EN" "http://www.w3.org/Graphics/SVG/1.1/DTD/svg11.dtd">
<svg xmlns="http://www.w3.org/2000/svg" xmlns:xlink="http://www.w3.org/1999/xlink" version="1.1" width="1080" height="1080" viewBox="0 0 1080 1080" xml:space="preserve">
<desc>Created with Fabric.js 5.2.4</desc>
<defs>
</defs>
<g transform="matrix(1 0 0 1 540 540)" id="4ada82f5-3c81-47c7-965b-6efcacfaf85e"  >
<rect style="stroke: none; stroke-width: 1; stroke-dasharray: none; stroke-linecap: butt; stroke-dashoffset: 0; stroke-linejoin: miter; stroke-miterlimit: 4; fill: rgb(255,255,255); fill-rule: nonzero; opacity: 1; visibility: hidden;" vector-effect="non-scaling-stroke"  x="-540" y="-540" rx="0" ry="0" width="1080" height="1080" />
</g>
<g transform="matrix(1 0 0 1 540 540)" id="69c53adf-56be-4ea5-8f5a-01a8fddaff70"  >
</g>
<g transform="matrix(33.75 0 0 33.75 540 540)"  >
<g style=""   >
		<g transform="matrix(1 0 0 1 -6.11 0)"  >
<path style="stroke: none; stroke-width: 1; stroke-dasharray: none; stroke-linecap: butt; stroke-dashoffset: 0; stroke-linejoin: miter; stroke-miterlimit: 4; fill: rgb(115,103,240); fill-rule: evenodd; opacity: 1;" vector-effect="non-scaling-stroke"  transform=" translate(-9.89, -11)" d="M 0.00172773 0 L 0.00172773 6.85398 C 0.00172773 6.85398 -0.133178 9.01207 1.98092 10.8388 L 13.6912 21.9964 L 19.7809 21.9181 L 18.8042 9.88248 L 16.4951 7.17289 L 9.23799 0 L 0.00172773 0 Z" stroke-linecap="round" />
</g>
		<g transform="matrix(1 0 0 1 -3.87 -1.16)"  >
<path style="stroke: none; stroke-width: 1; stroke-dasharray: none; stroke-linecap: butt; stroke-dashoffset: 0; stroke-linejoin: miter; stroke-miterlimit: 4; fill: rgb(22,22,22); fill-rule: evenodd; opacity: 0.06;" vector-effect="non-scaling-stroke"  transform=" translate(-12.13, -9.84)" d="M 7.69824 16.4364 L 12.5199 3.23696 L 16.5541 7.25596 L 7.69824 16.4364 Z" stroke-linecap="round" />
</g>
		<g transform="matrix(1 0 0 1 -3.67 -0.72)"  >
<path style="stroke: none; stroke-width: 1; stroke-dasharray: none; stroke-linecap: butt; stroke-dashoffset: 0; stroke-linejoin: miter; stroke-miterlimit: 4; fill: rgb(22,22,22); fill-rule: evenodd; opacity: 0.06;" vector-effect="non-scaling-stroke"  transform=" translate(-12.33, -10.28)" d="M 8.07751 15.9175 L 13.9419 4.63989 L 16.5849 7.28475 L 8.07751 15.9175 Z" stroke-linecap="round" />
</g>
		<g transform="matrix(1 0 0 1 3.89 0)"  >
<path style="stroke: none; stroke-width: 1; stroke-dasharray: none; stroke-linecap: butt; stroke-dashoffset: 0; stroke-linejoin: miter; stroke-miterlimit: 4; fill: rgb(115,103,240); fill-rule: evenodd; opacity: 1;" vector-effect="non-scaling-stroke"  transform=" translate(-19.89, -11)" d="M 7.77295 16.3566 L 23.6563 0 L 32 0 L 32 6.88383 C 32 6.88383 31.8262 9.17836 30.6591 10.4057 L 19.7824 22 L 13.6938 22 L 7.77295 16.3566 Z" stroke-linecap="round" />
</g>
</g>
</g>
</svg>