<?xml version="1.0" encoding="UTF-8"?><svg id="Layer_1" xmlns="http://www.w3.org/2000/svg" viewBox="0 0 314 39"><defs><style>.cls-1{fill:#00b050;}.cls-2{fill:#c55911;}</style></defs><path class="cls-1" d="M5.7,28.56c-.21-.15-.28-.42-.22-.81,.07-.38,.22-.8,.45-1.24,.23-.44,.52-.87,.87-1.29s.69-.72,1.03-.93,.65-.26,.93-.17c.28,.09,.48,.41,.59,.97,.02,.37,.08,.67,.17,.91,.1,.24,.21,.45,.33,.62,.12,.17,.26,.31,.42,.42,.15,.11,.31,.2,.46,.27,.58,.29,1.1,.4,1.56,.32,.46-.08,.87-.29,1.23-.65s.66-.84,.91-1.44c.25-.61,.45-1.3,.61-2.07,.19-1.08,.29-2.2,.29-3.35s-.1-2.33-.3-3.51-.5-2.36-.9-3.54c-.4-1.17-.89-2.31-1.49-3.41-.52,.04-.97,.04-1.36,.01s-.75-.04-1.08-.04-.67,.03-1,.1c-.33,.07-.69,.22-1.1,.45-.54,.31-.99,.44-1.34,.4-.36-.04-.64-.18-.84-.43-.2-.25-.35-.56-.43-.92-.09-.37-.13-.73-.13-1.1,0-.67,.08-1.14,.23-1.4,.15-.26,.35-.39,.59-.39s.51,.09,.79,.26c.29,.17,.56,.37,.81,.58,.17,.15,.62,.29,1.33,.42,.71,.13,1.58,.21,2.6,.26s2.14,.04,3.35-.03c1.21-.07,2.41-.22,3.58-.45,.46-.1,.85-.25,1.17-.45s.65-.38,1-.53c.31-.13,.55-.12,.72,.04,.17,.16,.3,.4,.39,.69,.09,.3,.14,.64,.16,1.03,.02,.39,.03,.73,.03,1.04,0,.66-.09,1.1-.26,1.33-.17,.23-.39,.33-.65,.3-.26-.03-.54-.15-.85-.38-.31-.22-.6-.45-.87-.68-.21-.19-.47-.3-.78-.33-.31-.03-.63-.02-.95,.01-.33,.04-.66,.09-1.01,.14-.35,.06-.67,.09-.98,.09,.37,1.1,.7,2.29,1,3.58,.3,1.29,.53,2.61,.69,3.96,.16,1.35,.25,2.69,.26,4.02,0,1.33-.1,2.58-.33,3.76-.44,2.27-1.29,3.75-2.53,4.42-1.24,.67-3,.54-5.27-.4-.52-.21-.97-.33-1.36-.35-.39-.02-.73,0-1.03,.03-.3,.04-.56,.07-.79,.09-.23,.02-.46-.06-.69-.23Z"/><path class="cls-1" d="M24.52,13.56c0-.29-.08-.59-.25-.9-.16-.31-.33-.61-.51-.9-.17-.29-.32-.57-.43-.84-.12-.27-.13-.52-.06-.75,.1-.25,.39-.48,.88-.68,.49-.2,1.02-.33,1.59-.39,.57-.06,1.08-.03,1.55,.09,.46,.12,.7,.36,.72,.72,.02,.25-.01,.46-.1,.64-.09,.17-.19,.38-.3,.62-.12,.24-.23,.55-.33,.94-.11,.39-.17,.93-.19,1.62-.02,.37-.04,.81-.07,1.33s-.06,1.08-.09,1.69c-.03,.61-.04,1.23-.04,1.88s.02,1.27,.06,1.86c.1,1.31,.32,2.5,.66,3.55,.35,1.06,.76,1.96,1.24,2.7,.48,.74,1.02,1.31,1.6,1.69,.59,.39,1.18,.56,1.78,.52,.77-.06,1.4-.4,1.88-1.04s.86-1.45,1.14-2.46c.28-1,.47-2.11,.58-3.32,.11-1.21,.19-2.43,.25-3.64,.02-.54,.03-1.14,.04-1.81,0-.66,.01-1.31,.01-1.95v-1.76c0-.54,0-.95,.03-1.24,.04-.87,0-1.52-.12-1.97-.12-.44-.25-.78-.4-1.01-.15-.23-.3-.41-.45-.55-.14-.13-.22-.34-.22-.61-.02-.25,.1-.44,.35-.58,.25-.13,.56-.23,.92-.27,.37-.05,.77-.06,1.2-.03s.83,.09,1.2,.19c.37,.1,.67,.22,.91,.36,.24,.14,.35,.31,.33,.51-.02,.23-.09,.41-.22,.55-.13,.14-.26,.31-.42,.52-.15,.21-.3,.5-.43,.87-.14,.37-.23,.89-.29,1.56-.02,.6-.02,1.23-.01,1.91,0,.67,.02,1.34,.04,2.01s.03,1.3,.03,1.91-.02,1.14-.06,1.6c-.21,2.54-.52,4.63-.91,6.27-.4,1.64-.88,2.93-1.46,3.87-.58,.94-1.23,1.59-1.97,1.94s-1.54,.51-2.43,.49c-1.39-.02-2.54-.35-3.47-.98-.92-.64-1.67-1.65-2.22-3.05-.56-1.4-.96-3.22-1.2-5.46-.24-2.24-.36-4.99-.36-8.22Z"/><path class="cls-1" d="M43.56,29.02c0,.27,.01,.14,.04-.39,.03-.53,.04-1.3,.04-2.31s-.02-2.18-.06-3.51-.12-2.67-.25-4.02c-.13-1.35-.31-2.62-.55-3.83-.24-1.2-.55-2.18-.94-2.93-.58-1.06-.91-1.8-.98-2.22-.06-.29,.02-.56,.23-.81,.21-.25,.49-.48,.84-.68,.35-.2,.73-.37,1.16-.49,.42-.12,.82-.19,1.18-.19s.67,.06,.92,.19c.25,.13,.39,.34,.4,.65,0,.23-.03,.52-.1,.87-.07,.35-.12,.74-.16,1.18-.06,.52,.11,1.17,.49,1.94,.38,.77,.9,1.6,1.55,2.49s1.36,1.79,2.15,2.7c.79,.92,1.57,1.77,2.34,2.56,.77,.79,1.47,1.48,2.11,2.08,.64,.6,1.12,1.02,1.45,1.27,0-.92-.02-1.91-.06-2.96-.04-1.05-.08-2.12-.13-3.22-.05-1.1-.1-2.19-.16-3.28-.06-1.09-.12-2.12-.17-3.11-.02-.29-.11-.57-.26-.84-.15-.27-.32-.53-.49-.79-.17-.26-.33-.51-.48-.75-.14-.24-.22-.5-.22-.77s.15-.49,.46-.65c.31-.16,.68-.29,1.11-.39,.43-.1,.88-.16,1.33-.19,.45-.03,.82-.04,1.11-.04,.56,.02,.96,.09,1.2,.2s.38,.26,.4,.43c.03,.17-.02,.37-.14,.59-.13,.22-.27,.45-.45,.68-.17,.23-.34,.47-.51,.71-.16,.24-.26,.46-.3,.65-.12,.58-.2,1.24-.26,1.99-.06,.75-.1,1.55-.12,2.38s-.02,1.69-.01,2.54c0,.86,.03,1.68,.06,2.47,.03,.79,.06,1.52,.09,2.2,.03,.67,.06,1.24,.1,1.7,.04,.54,.15,1.01,.35,1.42,.19,.4,.39,.77,.61,1.08s.4,.59,.58,.82c.17,.23,.26,.45,.26,.66s-.13,.42-.38,.62c-.25,.2-.68,.42-1.3,.65-.29,.12-.66,.26-1.11,.43-.45,.17-.87,.27-1.26,.27-.39,0-.68-.11-.9-.36-.21-.25-.24-.75-.09-1.5,.1-.39,0-.85-.32-1.4-.31-.55-.73-1.14-1.27-1.76-.54-.63-1.16-1.28-1.85-1.95-.69-.67-1.39-1.34-2.08-1.99-.69-.65-1.35-1.28-1.97-1.86-.62-.59-1.11-1.11-1.47-1.57,.06,.98,.11,2.02,.16,3.12,.05,1.1,.11,2.19,.19,3.27,.08,1.08,.18,2.12,.3,3.12,.12,1,.29,1.9,.51,2.69,.06,.21,.19,.39,.4,.52,.21,.13,.44,.27,.68,.4,.24,.14,.45,.29,.64,.46s.27,.39,.27,.64c0,.39-.13,.69-.39,.91-.26,.22-.56,.39-.91,.52-.35,.12-.7,.21-1.05,.26-.36,.05-.63,.08-.82,.1-.71,.08-1.25,.07-1.62-.01-.37-.09-.61-.23-.74-.42-.13-.19-.17-.42-.13-.69,.04-.27,.11-.55,.22-.85s.22-.59,.33-.88,.17-.56,.17-.81Z"/><path class="cls-1" d="M60.49,17.72c-.1-1.81,.1-3.48,.59-5.01,.49-1.53,1.19-2.81,2.11-3.83,.92-1.02,1.98-1.73,3.21-2.12,1.22-.39,2.53-.36,3.92,.1,.17,.06,.45,.1,.84,.12,.38,.02,.78,.06,1.17,.13,.39,.07,.74,.18,1.03,.35,.29,.16,.43,.42,.43,.77,0,.31-.06,.66-.17,1.07-.12,.4-.27,.79-.48,1.16s-.44,.68-.72,.94c-.28,.26-.57,.39-.88,.39-.23,0-.39-.06-.48-.19-.09-.12-.14-.28-.17-.48s-.04-.4-.04-.64-.04-.45-.13-.66-.23-.39-.42-.55c-.19-.15-.48-.26-.87-.32-.46-.06-.94-.05-1.45,.03-.5,.08-.98,.21-1.45,.39-.46,.18-.88,.4-1.26,.66-.38,.26-.67,.54-.88,.85-.52,.77-.97,1.68-1.34,2.73-.38,1.05-.58,2.23-.62,3.54-.04,1.29,.07,2.46,.33,3.5,.26,1.04,.56,2.08,.91,3.12,.21,.62,.51,1.18,.88,1.69,.38,.51,.79,.95,1.26,1.33,.46,.38,.93,.67,1.42,.88,.48,.21,.92,.32,1.33,.32,.91,0,1.71-.23,2.43-.69,.71-.46,1.15-1.13,1.3-1.99,.08-.48,.12-1.01,.13-1.59,0-.58,0-1.16-.04-1.73-.04-.58-.11-1.13-.22-1.66-.11-.53-.24-.98-.39-1.34-.5,.1-.95,.24-1.36,.42-.4,.18-.75,.39-1.04,.61-.29,.22-.53,.44-.74,.66-.2,.22-.35,.42-.45,.59-.33,.56-.63,.85-.91,.87-.28,.02-.53-.12-.75-.42-.22-.3-.41-.71-.58-1.24-.16-.53-.29-1.08-.39-1.66-.1-.54-.05-.89,.14-1.04,.19-.15,.44-.22,.74-.19,.3,.03,.6,.1,.91,.22,.31,.12,.53,.17,.66,.17,.79,0,1.52-.14,2.2-.43s1.45-.66,2.31-1.13c.1-.06,.23-.09,.39-.1s.34,.02,.52,.1c.18,.08,.36,.22,.52,.42,.16,.2,.29,.5,.39,.88,.37,1.64,.57,3.22,.61,4.75,.04,1.53-.14,2.89-.53,4.08s-1.05,2.14-1.95,2.86c-.91,.72-2.13,1.09-3.67,1.11-1.04,.02-1.97-.18-2.77-.59-.81-.41-1.51-.96-2.11-1.63-.6-.67-1.1-1.45-1.52-2.34-.41-.89-.76-1.81-1.03-2.76s-.47-1.9-.61-2.85c-.13-.94-.22-1.81-.26-2.6Z"/><path class="cls-1" d="M79.57,30.93c-.12,0-.28-.02-.49-.07s-.42-.15-.62-.32-.38-.39-.52-.66c-.14-.28-.22-.64-.22-1.08l-.14-13.55c0-1.1,0-1.95-.01-2.54,0-.6-.06-1.1-.14-1.5s-.23-.79-.43-1.14c-.2-.36-.49-.83-.85-1.43-.25-.39-.29-.71-.12-.98,.17-.27,.46-.48,.85-.64,.39-.15,.85-.26,1.37-.32,.52-.06,1.02-.06,1.5-.01,.48,.05,.89,.14,1.21,.27,.33,.14,.5,.31,.52,.52,.02,.31-.01,.54-.1,.71-.09,.16-.2,.34-.33,.53-.13,.19-.28,.44-.45,.74s-.31,.72-.45,1.27-.24,1.27-.32,2.17c-.08,.9-.11,2.04-.09,3.42,.02,.81,.04,1.76,.06,2.85,.02,1.09,.06,2.21,.12,3.35,.06,1.15,.14,2.26,.26,3.34,.12,1.08,.28,2.01,.49,2.8,1.08,.1,2.07,.13,2.96,.1s1.82-.01,2.76,.04c1.04,.06,1.82,.02,2.36-.1,.53-.13,.93-.27,1.21-.43,.28-.16,.5-.31,.66-.45s.41-.19,.74-.17c.17,.02,.35,.27,.52,.75,.17,.48,.27,1.01,.3,1.59,.03,.58-.04,1.1-.2,1.56-.16,.46-.49,.68-.97,.66-.27-.02-.48-.08-.62-.17-.14-.1-.34-.21-.59-.33-.25-.13-.61-.25-1.07-.36s-1.16-.2-2.08-.26c-.98-.06-2.05-.12-3.19-.17-1.15-.06-2.44-.05-3.89,.03Z"/><path class="cls-1" d="M92.14,17.7c0-.64,.04-1.34,.12-2.12,.08-.78,.2-1.56,.38-2.34,.17-.78,.42-1.54,.74-2.28,.32-.74,.71-1.4,1.17-1.98,.46-.58,1.02-1.04,1.68-1.39s1.42-.52,2.28-.52c1.08,0,1.97,.26,2.66,.79,.69,.53,1.24,1.2,1.63,2.02,.4,.82,.67,1.72,.82,2.72,.15,.99,.23,1.95,.23,2.88v.74c0,.32,0,.63-.01,.93,0,.3-.01,.57-.01,.81v.39c0,.29-.02,.63-.07,1.01-.05,.39-.14,.74-.29,1.07-.14,.33-.35,.6-.61,.82s-.61,.33-1.05,.33c-1.12-.04-2.23-.08-3.34-.12-1.11-.04-2.22-.08-3.34-.12,0,.19,.05,.47,.14,.84,.1,.37,.23,.77,.4,1.21,.17,.44,.38,.9,.62,1.36,.24,.46,.49,.89,.75,1.27,.26,.39,.53,.7,.81,.94,.28,.24,.55,.36,.82,.36,.13,0,.31-.03,.52-.09,.21-.06,.41-.09,.61-.1,.19,0,.35,.02,.46,.09,.12,.07,.14,.23,.09,.48-.15,.62-.33,1.15-.52,1.59-.19,.44-.39,.82-.58,1.13-.19,.31-.38,.56-.55,.75-.17,.19-.31,.34-.4,.43-.17,.19-.38,.35-.61,.46-.23,.12-.46,.18-.68,.2-.22,.02-.4-.02-.55-.12-.14-.1-.22-.28-.22-.55v-2.25c-.81-1.02-1.47-1.96-1.99-2.8-.52-.85-.94-1.71-1.26-2.59s-.54-1.81-.66-2.8-.19-2.14-.19-3.45Zm2.75,1.27c.39,.12,.82,.23,1.31,.33,.49,.11,1,.18,1.52,.23,.52,.05,1.04,.07,1.55,.07s.97-.05,1.37-.14c.15-.17,.27-.47,.35-.9,.08-.42,.13-.89,.16-1.39,.03-.5,.04-1,.04-1.5v-1.18c0-.37,0-.87-.03-1.5-.02-.64-.1-1.25-.25-1.85-.14-.6-.37-1.12-.68-1.56-.31-.44-.75-.66-1.33-.66-.5,.1-.96,.36-1.37,.79s-.78,.97-1.08,1.6c-.31,.64-.57,1.33-.79,2.08-.22,.75-.4,1.48-.52,2.2-.13,.71-.21,1.37-.25,1.98-.04,.61-.04,1.07,0,1.4Z"/><path class="cls-1" d="M114.74,30.73c.1-.19,.2-.58,.32-1.17s.22-1.33,.3-2.23c.09-.9,.15-1.93,.19-3.11,.04-1.17,.04-2.46,0-3.84-.04-1.21-.06-2.34-.07-3.37,0-1.03-.04-2.05-.1-3.05-.06-1-.15-2.01-.29-3.03-.13-1.02-.35-2.11-.64-3.27-.02-.06-.06-.16-.12-.32-.06-.15-.03-.31,.07-.48,.11-.16,.35-.31,.74-.43,.39-.12,1.02-.19,1.91-.19,.35,0,.6,.06,.75,.19,.15,.13,.25,.29,.27,.49,.03,.2,.01,.42-.04,.65-.06,.23-.14,.45-.26,.66,2.06-.31,3.7-.19,4.91,.36s1.82,1.49,1.82,2.82c0,.35-.12,.67-.36,.98-.24,.31-.54,.59-.9,.84-.36,.25-.73,.46-1.13,.64-.4,.17-.74,.31-1.03,.4,.56,.21,1.19,.48,1.91,.81,.71,.33,1.38,.75,2.01,1.26,.63,.51,1.17,1.14,1.62,1.88s.7,1.63,.74,2.67c.04,1.14-.15,2.19-.58,3.15-.42,.96-1.04,1.79-1.85,2.49-.81,.69-1.79,1.22-2.95,1.57-1.16,.36-2.45,.49-3.87,.39-.06,.39-.07,.73-.03,1.03,.04,.3,.09,.57,.14,.81,.06,.24,.11,.45,.14,.64,.04,.18,.03,.35-.03,.51-.06,.13-.21,.26-.45,.36s-.52,.18-.82,.22c-.31,.04-.63,.05-.97,.03-.34-.02-.63-.08-.88-.19-.25-.11-.43-.26-.53-.45-.11-.19-.09-.43,.04-.72Zm2.95-4.28c1.33,.12,2.44,.02,3.34-.29,.9-.31,1.62-.75,2.17-1.33,.55-.58,.94-1.24,1.18-1.98s.36-1.48,.36-2.21c0-.87-.24-1.62-.72-2.27-.48-.65-1.07-1.18-1.78-1.62-.7-.43-1.46-.76-2.28-.97-.82-.21-1.57-.32-2.27-.32,0,.66,0,1.47-.03,2.44-.02,.97-.04,1.98-.06,3.02-.02,1.04-.02,2.05-.01,3.03,0,.98,.04,1.81,.1,2.49Zm4.36-15.23c0-.4-.18-.7-.53-.9-.36-.19-.77-.3-1.24-.33s-.95,0-1.43,.1c-.48,.1-.85,.23-1.1,.4v2.28c.21,0,.56,0,1.04-.01,.48,0,.96-.06,1.45-.14,.48-.09,.91-.24,1.27-.46,.37-.22,.55-.53,.55-.94Z"/><path class="cls-1" d="M129.18,19.52c0-.6-.01-1.28-.04-2.05s0-1.58,.06-2.41,.21-1.68,.42-2.51c.21-.84,.55-1.62,1.01-2.36,.29-.44,.64-.86,1.05-1.26,.41-.39,.89-.74,1.43-1.04,.54-.3,1.14-.52,1.79-.68,.65-.15,1.36-.2,2.11-.14,.75,.06,1.39,.22,1.92,.49s.99,.63,1.37,1.07,.72,.95,1,1.53c.28,.58,.53,1.2,.77,1.88,.33,.91,.58,1.9,.77,2.98,.18,1.08,.29,2.29,.33,3.64,0,.58,0,1.17-.01,1.79,0,.62-.03,1.22-.07,1.82-.04,.6-.09,1.17-.16,1.72s-.16,1.04-.27,1.46c-.42,1.66-1.18,2.85-2.27,3.58-1.09,.73-2.59,1.1-4.49,1.1-.81,0-1.54-.17-2.18-.51-.65-.34-1.21-.79-1.71-1.36-.49-.57-.92-1.22-1.27-1.95-.36-.73-.65-1.49-.88-2.28-.23-.79-.4-1.58-.51-2.36-.11-.78-.16-1.5-.16-2.15Zm3.5-.61c.13,2.76,.54,4.87,1.21,6.36,.67,1.48,1.78,2.35,3.32,2.6,.67,.1,1.36-.11,2.05-.62,.69-.51,1.2-1.23,1.53-2.15,.1-.27,.17-.63,.23-1.07,.06-.44,.11-.92,.14-1.43,.04-.51,.07-1.04,.09-1.59,.02-.55,.04-1.07,.06-1.58,.02-.64-.01-1.33-.1-2.09-.09-.76-.21-1.53-.38-2.31-.16-.78-.37-1.54-.61-2.27-.24-.73-.52-1.38-.84-1.95-.32-.57-.67-1.03-1.05-1.37-.39-.35-.8-.52-1.24-.52-.87,0-1.6,.25-2.2,.74-.6,.49-1.07,1.18-1.43,2.07-.36,.89-.6,1.95-.72,3.18s-.15,2.57-.07,4.02Z"/><path class="cls-1" d="M145.6,19.52c0-.6-.01-1.28-.04-2.05s0-1.58,.06-2.41,.21-1.68,.42-2.51c.21-.84,.55-1.62,1.01-2.36,.29-.44,.64-.86,1.05-1.26,.41-.39,.89-.74,1.43-1.04,.54-.3,1.14-.52,1.79-.68,.65-.15,1.36-.2,2.11-.14,.75,.06,1.39,.22,1.92,.49s.99,.63,1.37,1.07,.72,.95,1,1.53c.28,.58,.53,1.2,.77,1.88,.33,.91,.58,1.9,.77,2.98,.18,1.08,.29,2.29,.33,3.64,0,.58,0,1.17-.01,1.79,0,.62-.03,1.22-.07,1.82-.04,.6-.09,1.17-.16,1.72s-.16,1.04-.27,1.46c-.42,1.66-1.18,2.85-2.27,3.58-1.09,.73-2.59,1.1-4.49,1.1-.81,0-1.54-.17-2.18-.51-.65-.34-1.21-.79-1.71-1.36-.49-.57-.92-1.22-1.27-1.95-.36-.73-.65-1.49-.88-2.28-.23-.79-.4-1.58-.51-2.36-.11-.78-.16-1.5-.16-2.15Zm3.5-.61c.13,2.76,.54,4.87,1.21,6.36,.67,1.48,1.78,2.35,3.32,2.6,.67,.1,1.36-.11,2.05-.62,.69-.51,1.2-1.23,1.53-2.15,.1-.27,.17-.63,.23-1.07,.06-.44,.11-.92,.14-1.43,.04-.51,.07-1.04,.09-1.59,.02-.55,.04-1.07,.06-1.58,.02-.64-.01-1.33-.1-2.09-.09-.76-.21-1.53-.38-2.31-.16-.78-.37-1.54-.61-2.27-.24-.73-.52-1.38-.84-1.95-.32-.57-.67-1.03-1.05-1.37-.39-.35-.8-.52-1.24-.52-.87,0-1.6,.25-2.2,.74-.6,.49-1.07,1.18-1.43,2.07-.36,.89-.6,1.95-.72,3.18s-.15,2.57-.07,4.02Z"/><path class="cls-1" d="M162.62,31.36c-.44,.02-.72-.09-.82-.32-.11-.23-.13-.51-.06-.82,.07-.32,.18-.64,.33-.97,.15-.33,.27-.59,.35-.78,.19-.52,.3-1.27,.32-2.24,.02-.97,0-2.05-.07-3.24-.07-1.18-.18-2.4-.33-3.64-.15-1.24-.3-2.4-.45-3.47-.14-1.07-.28-1.98-.42-2.73-.14-.75-.22-1.22-.26-1.42-.13-.6-.38-1.14-.74-1.63-.36-.49-.64-.93-.85-1.31-.21-.39-.26-.72-.16-1.01,.11-.29,.55-.52,1.34-.69,.33-.08,.7-.17,1.13-.27,.42-.11,.8-.18,1.13-.22,.75-.08,1.21,0,1.39,.2,.17,.21,.21,.49,.1,.84s-.26,.72-.46,1.13c-.2,.4-.3,.77-.3,1.1,0,.25,0,.57,.01,.95,0,.39,.02,.8,.04,1.26,.02,.45,.05,.93,.09,1.43,.04,.5,.09,.99,.15,1.47,.13-.04,.37-.14,.69-.3s.71-.36,1.16-.59c.44-.23,.91-.48,1.41-.75,.5-.27,.97-.53,1.42-.78,.44-.25,.83-.48,1.17-.69,.34-.21,.57-.37,.71-.46,.19-.15,.38-.39,.55-.71,.17-.32,.35-.63,.52-.92,.17-.3,.35-.53,.54-.71,.18-.17,.39-.2,.62-.09,.13,.08,.3,.23,.5,.46,.2,.23,.39,.49,.56,.78,.17,.29,.33,.58,.46,.88s.21,.55,.23,.77c.02,.27-.04,.44-.17,.52-.13,.08-.31,.13-.54,.14-.22,.02-.47,.03-.75,.04-.28,0-.54,.09-.77,.25-.21,.13-.57,.34-1.08,.61-.51,.27-1.07,.58-1.68,.93-.61,.35-1.22,.72-1.84,1.13s-1.13,.81-1.53,1.21c.15,.1,.39,.27,.71,.52,.32,.25,.68,.54,1.08,.87,.4,.33,.83,.66,1.29,1.01,.45,.35,.9,.67,1.33,.97s.84,.55,1.21,.77,.69,.34,.94,.38c.56,.1,1.02,.16,1.4,.2,.38,.04,.65,.14,.81,.29,.16,.15,.21,.4,.14,.75-.07,.35-.26,.88-.56,1.59-.27,.62-.53,1.05-.78,1.3s-.49,.35-.72,.3c-.23-.05-.46-.22-.68-.52-.22-.3-.43-.71-.62-1.23-.08-.17-.28-.43-.62-.77-.34-.34-.75-.7-1.24-1.1-.49-.4-1.02-.8-1.57-1.23-.56-.42-1.1-.81-1.62-1.17-.52-.36-.98-.66-1.39-.93-.4-.26-.68-.42-.84-.48,0,.52,.02,1.17,.07,1.95,.05,.78,.12,1.59,.22,2.43,.1,.84,.21,1.65,.35,2.44,.13,.79,.3,1.45,.49,1.99,.1,.29,.27,.63,.52,1.01s.45,.76,.61,1.13c.15,.37,.2,.7,.14,1.01-.06,.31-.35,.53-.87,.66-.29,.08-.54,.14-.75,.2-.21,.06-.43,.11-.66,.16-.23,.05-.51,.08-.82,.1-.32,.02-.72,.04-1.2,.06Z"/><path class="cls-2" d="M191.61,30.53c0-.33,.05-.65,.16-.98s.23-.65,.36-.98c.13-.33,.26-.66,.36-1,.11-.34,.16-.68,.16-1.03,0-.96-.01-2.12-.04-3.47s-.07-2.75-.13-4.2c-.06-1.45-.13-2.89-.2-4.29-.08-1.41-.16-2.65-.26-3.73-.98,.04-1.8,.08-2.44,.13s-1.19,.11-1.65,.19c-.45,.08-.84,.18-1.17,.3-.33,.13-.66,.29-1.01,.51-.25,.15-.48,.15-.68,0s-.37-.39-.51-.69c-.13-.31-.23-.66-.29-1.05-.06-.39-.05-.75,.01-1.07,.07-.32,.2-.56,.39-.74,.19-.17,.46-.2,.81-.09,.39,.14,.69,.25,.91,.33,.22,.09,.43,.15,.64,.2,.2,.05,.42,.08,.66,.09,.24,0,.57,0,1-.01s.97-.05,1.65-.1c.67-.05,1.54-.12,2.6-.22,1.39-.12,2.54-.23,3.45-.33,.91-.11,1.66-.21,2.24-.32s1.03-.22,1.34-.33c.32-.12,.57-.23,.75-.35,.18-.12,.33-.24,.45-.36,.12-.12,.28-.26,.49-.42,.29-.21,.55-.28,.78-.22,.23,.07,.42,.22,.58,.45,.15,.23,.27,.52,.36,.85,.09,.34,.14,.68,.16,1.03,.02,.35,0,.66-.04,.95-.05,.29-.13,.5-.25,.64-.1,.12-.38,.14-.84,.09-.46-.06-1.16-.16-2.08-.32-.62-.1-1.4-.06-2.34,.1-.94,.16-1.98,.35-3.12,.56-.02,1.16-.03,2.46-.03,3.92s.03,2.93,.09,4.44c.06,1.5,.15,2.98,.26,4.44,.12,1.45,.29,2.77,.52,3.94,.04,.21,.11,.44,.2,.68s.19,.48,.29,.72c.1,.24,.18,.48,.25,.72,.07,.24,.1,.48,.1,.71,0,.33-.09,.59-.26,.78-.17,.19-.39,.34-.64,.43-.25,.1-.53,.16-.84,.19-.31,.03-.59,.04-.84,.04-.23,0-.49,0-.77-.01s-.53-.05-.77-.13c-.23-.08-.43-.19-.59-.33-.16-.14-.25-.36-.25-.65Z"/><path class="cls-2" d="M204.58,19.52c0-.6-.01-1.28-.04-2.05-.03-.77,0-1.58,.06-2.41s.21-1.68,.42-2.51c.21-.84,.55-1.62,1.01-2.36,.29-.44,.64-.86,1.05-1.26,.41-.39,.89-.74,1.43-1.04,.54-.3,1.14-.52,1.79-.68,.65-.15,1.36-.2,2.11-.14,.75,.06,1.39,.22,1.92,.49s.99,.63,1.37,1.07c.38,.44,.72,.95,1,1.53,.28,.58,.54,1.2,.77,1.88,.33,.91,.58,1.9,.77,2.98,.18,1.08,.29,2.29,.33,3.64,0,.58,0,1.17-.01,1.79,0,.62-.03,1.22-.07,1.82-.04,.6-.09,1.17-.16,1.72-.07,.55-.16,1.04-.27,1.46-.42,1.66-1.18,2.85-2.27,3.58-1.09,.73-2.59,1.1-4.49,1.1-.81,0-1.54-.17-2.18-.51-.65-.34-1.21-.79-1.7-1.36s-.91-1.22-1.27-1.95-.65-1.49-.88-2.28c-.23-.79-.4-1.58-.51-2.36-.11-.78-.16-1.5-.16-2.15Zm3.5-.61c.13,2.76,.54,4.87,1.21,6.36,.67,1.48,1.78,2.35,3.32,2.6,.67,.1,1.36-.11,2.05-.62,.69-.51,1.2-1.23,1.53-2.15,.1-.27,.17-.63,.23-1.07,.06-.44,.11-.92,.15-1.43,.04-.51,.07-1.04,.09-1.59,.02-.55,.04-1.07,.06-1.58,.02-.64-.01-1.33-.1-2.09-.09-.76-.21-1.53-.38-2.31-.16-.78-.37-1.54-.61-2.27-.24-.73-.52-1.38-.84-1.95-.32-.57-.67-1.03-1.05-1.37-.39-.35-.8-.52-1.24-.52-.87,0-1.6,.25-2.2,.74-.6,.49-1.07,1.18-1.43,2.07s-.6,1.95-.72,3.18c-.13,1.23-.15,2.57-.07,4.02Z"/><path class="cls-2" d="M221.02,13.56c0-.29-.08-.59-.25-.9-.16-.31-.33-.61-.51-.9-.17-.29-.32-.57-.43-.84-.12-.27-.14-.52-.06-.75,.1-.25,.39-.48,.88-.68,.49-.2,1.02-.33,1.59-.39,.57-.06,1.08-.03,1.55,.09s.7,.36,.72,.72c.02,.25-.01,.46-.1,.64-.09,.17-.19,.38-.3,.62-.12,.24-.23,.55-.33,.94-.11,.39-.17,.93-.19,1.62-.02,.37-.04,.81-.07,1.33-.03,.52-.06,1.08-.09,1.69-.03,.61-.04,1.23-.04,1.88s.02,1.27,.06,1.86c.1,1.31,.32,2.5,.66,3.55,.35,1.06,.76,1.96,1.24,2.7,.48,.74,1.02,1.31,1.6,1.69,.59,.39,1.18,.56,1.78,.52,.77-.06,1.4-.4,1.88-1.04,.48-.64,.86-1.45,1.14-2.46s.47-2.11,.58-3.32c.11-1.21,.19-2.43,.25-3.64,.02-.54,.03-1.14,.04-1.81s.01-1.31,.01-1.95v-1.76c0-.54,0-.95,.03-1.24,.04-.87,0-1.52-.12-1.97-.12-.44-.25-.78-.4-1.01-.15-.23-.3-.41-.45-.55-.15-.13-.22-.34-.22-.61-.02-.25,.1-.44,.35-.58,.25-.13,.56-.23,.93-.27,.37-.05,.77-.06,1.2-.03s.83,.09,1.2,.19c.37,.1,.67,.22,.91,.36s.35,.31,.33,.51c-.02,.23-.09,.41-.22,.55-.13,.14-.27,.31-.42,.52-.15,.21-.3,.5-.43,.87-.13,.37-.23,.89-.29,1.56-.02,.6-.02,1.23-.01,1.91,0,.67,.02,1.34,.04,2.01,.02,.66,.03,1.3,.03,1.91s-.02,1.14-.06,1.6c-.21,2.54-.52,4.63-.91,6.27-.4,1.64-.88,2.93-1.46,3.87-.58,.94-1.23,1.59-1.97,1.94s-1.54,.51-2.43,.49c-1.39-.02-2.54-.35-3.47-.98-.93-.64-1.67-1.65-2.23-3.05-.56-1.4-.96-3.22-1.2-5.46s-.36-4.99-.36-8.22Z"/><path class="cls-2" d="M239.75,29.46c.08-.19,.17-.58,.29-1.17,.12-.59,.19-1.52,.23-2.8,.04-1.28,0-2.99-.13-5.13s-.4-4.85-.82-8.15c-.06-.37-.21-.67-.46-.91-.25-.24-.52-.47-.79-.68-.28-.21-.53-.45-.75-.72-.22-.27-.33-.63-.33-1.07,0-.23,.08-.42,.23-.56,.15-.14,.38-.28,.68-.4,.3-.12,.66-.25,1.1-.36s.93-.26,1.49-.43c.41-.13,.71-.19,.91-.17s.34,.1,.42,.25c.08,.14,.12,.35,.12,.62v1.01c.85-.37,1.64-.69,2.37-.98,.73-.29,1.44-.47,2.11-.55,.93-.12,1.76-.09,2.5,.09,.74,.17,1.36,.46,1.85,.87,.49,.4,.85,.92,1.08,1.55,.23,.63,.31,1.33,.23,2.12-.06,.48-.29,.96-.69,1.44-.4,.48-.95,.9-1.63,1.24-.68,.35-1.49,.6-2.41,.77-.93,.16-1.93,.17-3.01,.01,.81,.37,1.6,.88,2.38,1.55,.78,.66,1.5,1.35,2.15,2.05,.65,.7,1.21,1.36,1.66,1.97,.45,.61,.74,1.03,.85,1.26,.15,.29,.38,.53,.69,.72,.31,.19,.61,.37,.91,.53,.3,.16,.55,.32,.77,.48,.21,.15,.32,.34,.32,.55-.02,.37-.19,.74-.52,1.11-.33,.38-.72,.7-1.17,.97-.45,.27-.91,.46-1.37,.58-.46,.12-.84,.09-1.13-.09-.21-.12-.32-.27-.32-.48s.02-.44,.07-.71c.05-.27,.09-.58,.13-.94,.04-.36,0-.74-.14-1.14-.17-.52-.47-1.14-.9-1.85-.42-.71-.96-1.43-1.6-2.14-.65-.71-1.38-1.36-2.21-1.94-.83-.58-1.72-.99-2.69-1.24-.12,.85-.16,1.79-.13,2.82,.03,1.03,.11,2.07,.23,3.12s.3,2.07,.52,3.05c.22,.98,.48,1.86,.77,2.63,.08,.19,.18,.37,.32,.52,.13,.15,.27,.3,.4,.45,.13,.14,.26,.3,.36,.46,.11,.16,.16,.35,.16,.56,0,.35-.21,.62-.62,.82-.41,.2-.9,.36-1.44,.46-.55,.11-1.08,.16-1.6,.17-.52,0-.9,0-1.13-.04-.33-.06-.53-.19-.61-.39s-.1-.43-.06-.68c.04-.25,.1-.48,.2-.68,.1-.2,.15-.33,.17-.39Zm2.25-15.95c.77,.21,1.58,.33,2.44,.35,.86,.02,1.65-.07,2.37-.26s1.32-.48,1.79-.87c.47-.39,.71-.87,.71-1.45,0-.35-.13-.7-.39-1.07-.26-.37-.69-.62-1.29-.77s-1.38-.12-2.34,.07c-.96,.19-2.14,.67-3.53,1.45l.23,2.54Z"/><path class="cls-2" d="M255.18,31.31c-.33-.04-.59-.27-.78-.69-.19-.42-.32-.88-.38-1.37-.06-.49-.04-.94,.06-1.36,.1-.41,.28-.64,.55-.68,.25-.02,.46,.01,.64,.1s.35,.19,.54,.32c.18,.13,.4,.24,.66,.35,.26,.11,.59,.16,1,.16,.12,0,.33-.01,.65-.04,.32-.03,.67-.07,1.07-.13,.4-.06,.79-.12,1.17-.17,.38-.06,.69-.12,.93-.17,.29-6.22,.14-11.76-.43-16.62-1.08-.27-1.88-.39-2.41-.35-.53,.04-.93,.14-1.19,.3-.26,.16-.44,.33-.53,.51-.1,.17-.23,.26-.4,.26-.37,0-.68-.14-.93-.42-.25-.28-.44-.62-.58-1.03-.14-.4-.21-.83-.23-1.29-.02-.45,.02-.85,.12-1.2,.1-.35,.25-.6,.46-.75,.21-.15,.48-.14,.81,.03,.4,.23,.77,.44,1.1,.64,.33,.19,.69,.37,1.1,.52,.4,.15,.89,.27,1.44,.35,.56,.08,1.27,.12,2.14,.12,.37,0,.79,0,1.27-.03,.48-.02,.96-.04,1.43-.07,.47-.03,.91-.06,1.33-.1,.41-.04,.73-.08,.94-.12,.66-.12,1.14-.27,1.45-.46,.31-.19,.53-.38,.68-.55,.14-.17,.26-.33,.33-.46s.2-.21,.38-.23c.25-.02,.45,.08,.61,.29,.15,.21,.27,.49,.33,.82s.1,.7,.1,1.1-.03,.77-.09,1.13c-.06,.36-.14,.66-.25,.91-.11,.25-.22,.4-.33,.43-.23,.06-.43,0-.61-.16-.17-.16-.45-.32-.82-.48-.38-.15-.91-.24-1.6-.26-.69-.02-1.68,.14-2.95,.49-.12,.81-.21,1.83-.27,3.05-.07,1.22-.1,2.58-.1,4.06s.05,3.06,.14,4.73,.25,3.36,.46,5.07c.94,.12,1.73,.15,2.37,.1s1.16-.14,1.58-.27c.41-.13,.74-.29,.98-.48s.44-.35,.61-.49c.16-.14,.32-.25,.46-.32,.15-.07,.32-.06,.54,.01,.29,.1,.47,.32,.53,.66s.11,.72,.13,1.13c0,.27-.01,.55-.03,.84-.02,.29-.06,.54-.13,.75-.07,.21-.16,.37-.29,.48-.13,.11-.28,.11-.48,.01-.48-.19-.97-.33-1.47-.42s-1.05-.14-1.63-.16c-.59-.02-1.23,0-1.92,.04-.69,.05-1.45,.1-2.28,.16-1.75,.13-3.1,.29-4.05,.46-.94,.17-1.66,.34-2.15,.49-.49,.15-.84,.28-1.04,.38-.2,.1-.44,.13-.71,.09Z"/><path class="cls-2" d="M274.28,27.43c-.13-.17-.3-.29-.49-.36-.19-.07-.39-.13-.59-.2s-.39-.14-.55-.23c-.16-.09-.27-.24-.33-.45-.06-.19-.01-.42,.14-.68,.15-.26,.36-.52,.62-.79,.26-.27,.56-.53,.91-.78s.67-.46,.97-.62c.3-.16,.56-.27,.79-.33,.23-.06,.38-.04,.43,.06,.1,.19,.16,.4,.2,.64,.04,.23,.07,.46,.09,.69,.02,.23,.03,.45,.04,.66s.02,.39,.04,.52c.08,.44,.25,.9,.51,1.37,.26,.47,.57,.91,.94,1.3,.37,.4,.77,.72,1.2,.98,.43,.26,.87,.39,1.31,.39,.4,0,.74-.12,1.01-.36s.49-.55,.65-.94c.16-.39,.28-.81,.36-1.29,.08-.47,.12-.93,.12-1.37,0-.62-.13-1.28-.4-1.99-.27-.71-.62-1.43-1.04-2.17-.42-.73-.91-1.46-1.45-2.18-.54-.72-1.08-1.42-1.63-2.08-.55-.66-1.08-1.29-1.59-1.88-.51-.59-.95-1.1-1.31-1.55-.13-.17-.27-.39-.4-.65-.13-.26-.25-.54-.35-.84-.1-.3-.18-.59-.25-.88-.07-.29-.1-.54-.1-.75,0-.79,.17-1.45,.52-1.98s.78-.95,1.29-1.26,1.06-.52,1.66-.62c.6-.11,1.15-.15,1.65-.13,.35,.02,.7,.1,1.05,.25,.36,.14,.69,.31,1,.51s.58,.38,.82,.56c.24,.18,.42,.33,.54,.45,.17,.17,.4,.28,.69,.33,.29,.05,.57,.1,.84,.14,.27,.05,.51,.12,.72,.22,.21,.1,.33,.28,.35,.55-.02,.23-.16,.52-.43,.88-.27,.36-.58,.71-.93,1.05s-.7,.65-1.05,.9c-.36,.25-.63,.4-.82,.43-.42,.08-.71,0-.87-.22-.15-.22-.25-.5-.29-.84-.04-.34-.06-.68-.06-1.04s-.06-.63-.17-.82c-.29-.5-.65-.84-1.07-1.01-.42-.17-.83-.21-1.21-.12-.39,.1-.71,.33-.98,.69s-.4,.84-.4,1.42c0,.23,.07,.51,.2,.82s.3,.64,.51,.95,.4,.62,.61,.9,.38,.52,.54,.71c1.35,1.77,2.45,3.26,3.31,4.46s1.53,2.24,2.02,3.11,.83,1.63,1.03,2.28,.31,1.34,.35,2.05c.04,.69-.06,1.36-.3,2.01-.24,.65-.59,1.21-1.05,1.7-.46,.49-1.01,.89-1.63,1.18-.63,.3-1.3,.45-2.01,.45s-1.36-.12-1.95-.36c-.59-.24-1.13-.56-1.63-.97-.5-.4-.97-.86-1.4-1.36-.43-.5-.85-1.01-1.26-1.53Z"/><path class="cls-2" d="M287.46,30.58c0-.31,.04-.55,.12-.74,.08-.18,.17-.38,.27-.58s.23-.43,.36-.69c.13-.26,.26-.62,.38-1.08,.12-.46,.21-1.05,.29-1.78,.08-.72,.12-1.64,.12-2.76,0-.79,0-1.66,.03-2.6,.02-.94,.03-1.91,.04-2.89,0-.98,0-1.96-.01-2.92-.02-.96-.08-1.85-.17-2.66-.04-.29-.2-.58-.48-.87-.28-.29-.54-.58-.79-.87-.25-.29-.42-.56-.51-.82-.09-.26,.05-.5,.42-.71,.67-.4,1.36-.71,2.05-.93,.69-.21,1.45-.32,2.25-.32,.25,0,.41,.09,.48,.27,.07,.18,.09,.4,.07,.65-.02,.25-.04,.5-.07,.75s-.02,.44,.01,.58c.12,.35,.38,.75,.79,1.21,.41,.46,.87,.92,1.36,1.39,.49,.46,.97,.89,1.44,1.27,.47,.39,.82,.66,1.05,.84,.46-.35,.96-.74,1.5-1.17s1.07-.88,1.59-1.33c.52-.45,1-.91,1.44-1.37,.44-.46,.79-.91,1.04-1.36,.06-.12,.07-.24,.03-.38s-.09-.27-.16-.42c-.07-.14-.13-.29-.2-.43-.07-.14-.1-.28-.1-.42,0-.21,.14-.38,.42-.52,.28-.13,.63-.23,1.05-.27,.42-.05,.88-.06,1.36-.04,.48,.02,.93,.08,1.36,.19,.42,.11,.77,.25,1.05,.42,.28,.17,.42,.38,.42,.61,0,.33-.07,.63-.2,.91-.13,.28-.28,.56-.45,.84s-.31,.56-.45,.84c-.13,.28-.21,.58-.23,.91-.02,.48-.03,1.14-.04,1.97,0,.83,0,1.73,0,2.72,.01,.98,.03,2,.07,3.06s.09,2.04,.14,2.95c.06,.91,.13,1.7,.23,2.38,.1,.68,.21,1.14,.35,1.37,.13,.27,.29,.5,.46,.69,.17,.19,.33,.38,.48,.56,.15,.18,.27,.39,.36,.61,.1,.22,.14,.49,.14,.79,0,.23-.13,.42-.39,.56-.26,.14-.59,.25-.98,.32s-.83,.1-1.3,.09c-.47,0-.92-.05-1.36-.12-.43-.07-.81-.17-1.13-.3-.32-.13-.52-.29-.59-.46-.1-.21-.12-.41-.07-.59,.05-.18,.13-.36,.25-.53,.12-.17,.25-.34,.4-.51,.15-.16,.29-.32,.4-.48,.19-.25,.33-.75,.4-1.49,.08-.74,.12-1.61,.13-2.6,0-.99-.01-2.04-.07-3.15-.06-1.11-.13-2.16-.23-3.16-.1-1-.21-1.89-.33-2.67-.13-.78-.25-1.32-.36-1.63-.15,.04-.37,.19-.65,.45-.28,.26-.59,.58-.92,.95-.34,.38-.7,.78-1.08,1.21-.39,.43-.78,.83-1.17,1.2s-.79,.67-1.19,.91c-.39,.24-.76,.36-1.08,.36-.66,0-1.22-.18-1.71-.55-.48-.37-.93-.79-1.36-1.27-.42-.48-.84-.96-1.26-1.43-.41-.47-.87-.82-1.37-1.05-.19,2.2-.31,4.12-.36,5.78-.05,1.66-.04,3.08,.01,4.28,.06,1.19,.16,2.18,.32,2.95,.15,.77,.34,1.36,.55,1.76,.12,.23,.32,.55,.61,.95,.29,.4,.51,.81,.65,1.21,.14,.4,.15,.77,.01,1.1-.14,.33-.55,.54-1.24,.64-.37,.06-.81,.15-1.34,.27-.53,.13-1.05,.2-1.55,.23-.5,.03-.93-.02-1.29-.16-.36-.13-.54-.44-.54-.93Z"/></svg>